<svg width="375" height="812" viewBox="0 0 375 812" fill="none" xmlns="http://www.w3.org/2000/svg">
<g clip-path="url(#clip0_598_3100)">
<rect width="375" height="812" fill="white"/>
<rect width="375" height="198" fill="#1E9B93"/>
<path opacity="0.4" fill-rule="evenodd" clip-rule="evenodd" d="M54.1629 272.936C53.7852 273.065 53.7645 273.112 53.7309 273.935C53.6978 274.746 53.6624 274.848 53.3373 275.069C53.1173 275.218 52.6815 275.353 52.415 275.353C51.9876 275.354 51.6019 275.546 51.5298 275.794C51.477 275.975 51.6334 276.211 51.8777 276.318C52.2375 276.476 53.0718 276.416 53.761 276.183C54.1623 276.048 54.741 275.683 54.9736 275.418C55.2821 275.068 55.3633 274.77 55.3633 273.993C55.3633 273.373 55.3527 273.294 55.2514 273.159C55.1702 273.051 55.0762 272.991 54.9084 272.938C54.6242 272.849 54.4181 272.849 54.1629 272.936ZM56.6997 272.945C56.2852 273.099 56.2867 273.093 56.2868 274.635C56.2868 276.159 56.288 276.164 56.6613 276.325C57.0481 276.492 57.6103 276.394 57.8209 276.123C57.9065 276.014 57.9159 275.866 57.916 274.635C57.9161 273.371 57.9085 273.259 57.8154 273.146C57.693 272.997 57.3592 272.867 57.1014 272.867C56.9968 272.867 56.8161 272.902 56.6997 272.945ZM59.2903 272.939C59.1274 272.991 59.0304 273.054 58.9508 273.16C58.8502 273.294 58.8394 273.375 58.8394 273.993C58.8394 274.77 58.9206 275.068 59.2291 275.418C59.4618 275.683 60.0405 276.048 60.4417 276.183C61.1309 276.416 61.9652 276.476 62.3251 276.318C62.5694 276.211 62.7257 275.975 62.673 275.794C62.6009 275.546 62.2151 275.354 61.7878 275.353C61.5212 275.353 61.0854 275.218 60.8654 275.069C60.5403 274.848 60.505 274.746 60.4718 273.935C60.438 273.108 60.4177 273.062 60.0282 272.934C59.7633 272.847 59.5745 272.848 59.2903 272.939Z" fill="white"/>
<path fill-rule="evenodd" clip-rule="evenodd" d="M45.8664 262.792C45.7073 262.817 45.3678 262.904 45.112 262.986C44.3004 263.245 43.6859 263.71 43.3501 264.318L43.2244 264.545L43.2078 267.405C43.1892 270.623 43.1819 270.552 43.5829 271.079C44.0045 271.633 44.8548 272.084 45.8026 272.256C45.9795 272.288 46.4389 272.319 46.9296 272.33L47.7579 272.35L47.7587 271.583C47.7596 270.71 47.8076 270.516 48.1256 270.098C48.4187 269.713 49.0423 269.316 49.6589 269.122C50.4804 268.862 50.151 268.873 57.1 268.873C64.0491 268.873 63.7197 268.862 64.5412 269.122C65.1577 269.316 65.7814 269.713 66.0745 270.098C66.3925 270.516 66.4404 270.71 66.4414 271.583L66.4422 272.35L67.2705 272.33C67.7612 272.319 68.2206 272.288 68.3975 272.256C69.3453 272.084 70.1956 271.633 70.6171 271.079C71.0181 270.552 71.0109 270.623 70.9922 267.405L70.9757 264.545L70.8499 264.318C70.5043 263.692 69.8925 263.238 69.0403 262.974C68.7614 262.888 68.4038 262.8 68.2455 262.779C67.7934 262.719 46.2518 262.732 45.8664 262.792ZM62.9997 264.828C63.3875 265.015 63.4957 265.285 63.2798 265.526C63.071 265.76 62.9025 265.793 61.9884 265.782C61.2997 265.773 61.1827 265.763 61.0567 265.701C60.6709 265.514 60.6081 265.18 60.9119 264.931C61.115 264.764 61.2896 264.737 62.1068 264.747C62.7601 264.754 62.868 264.764 62.9997 264.828ZM66.8756 264.799C66.9796 264.833 67.1223 264.916 67.1928 264.983C67.3674 265.15 67.3432 265.462 67.1449 265.599C66.899 265.769 66.7742 265.789 65.9641 265.789C65.2695 265.789 65.1942 265.783 65.0245 265.71C64.5035 265.485 64.5494 264.987 65.1073 264.809C65.4131 264.711 66.5842 264.705 66.8756 264.799ZM50.8599 269.961C50.329 270.028 49.7646 270.318 49.5397 270.638C49.4235 270.804 49.4132 270.871 49.3971 271.578L49.3797 272.34H57.1H64.8203L64.803 271.578C64.7868 270.871 64.7766 270.804 64.6604 270.638C64.5172 270.434 64.1267 270.173 63.8066 270.067C63.6864 270.027 63.457 269.978 63.2968 269.959C62.9364 269.915 51.2089 269.917 50.8599 269.961Z" fill="white"/>
<g filter="url(#filter0_d_598_3100)">
<rect x="2" y="338" width="342" height="51" rx="5" fill="white"/>
</g>
</g>
<defs>
<filter id="filter0_d_598_3100" x="-2" y="338" width="350" height="59" filterUnits="userSpaceOnUse" color-interpolation-filters="sRGB">
<feFlood flood-opacity="0" result="BackgroundImageFix"/>
<feColorMatrix in="SourceAlpha" type="matrix" values="0 0 0 0 0 0 0 0 0 0 0 0 0 0 0 0 0 0 127 0" result="hardAlpha"/>
<feOffset dy="4"/>
<feGaussianBlur stdDeviation="2"/>
<feComposite in2="hardAlpha" operator="out"/>
<feColorMatrix type="matrix" values="0 0 0 0 0 0 0 0 0 0 0 0 0 0 0 0 0 0 0.01 0"/>
<feBlend mode="normal" in2="BackgroundImageFix" result="effect1_dropShadow_598_3100"/>
<feBlend mode="normal" in="SourceGraphic" in2="effect1_dropShadow_598_3100" result="shape"/>
</filter>
<clipPath id="clip0_598_3100">
<rect width="375" height="812" fill="white"/>
</clipPath>
</defs>
</svg>
